<svg id="Group_361" data-name="Group 361" xmlns="http://www.w3.org/2000/svg" width="127.488" height="127.488" viewBox="0 0 127.488 127.488">
  <path id="Path_538" data-name="Path 538" d="M0,0H62.249V50.577H0Z" transform="translate(32.617 38.457)" fill="#e6e6e6"/>
  <path id="Path_314" data-name="Path 314" d="M0,0H127.487V127.487H0Z" transform="translate(0)" fill="none"/>
  <path id="Path_315" data-name="Path 315" d="M54.588,2h2.253l1.689.021,3.272.09,1.588.069,3.076.181,2.938.244c25.418,2.465,35.76,12.807,38.225,38.225l.244,2.938.181,3.076c.027.521.053,1.052.069,1.588l.09,3.272.027,3.41-.027,3.41-.09,3.272-.069,1.588-.181,3.076-.244,2.938c-2.465,25.418-12.807,35.76-38.225,38.225l-2.938.244-3.076.181c-.521.027-1.052.053-1.588.069l-3.272.09-3.41.027-3.41-.027-3.272-.09-1.588-.069-3.076-.181-2.938-.244C15.418,105.161,5.076,94.818,2.611,69.4l-.244-2.938-.181-3.076q-.039-.794-.069-1.588l-.09-3.272Q2,56.853,2,55.116L2.005,53.4l.021-1.689.09-3.272.069-1.588.181-3.076.244-2.938C5.076,15.415,15.418,5.072,40.836,2.608l2.938-.244,3.076-.181c.521-.027,1.052-.053,1.588-.069l3.272-.09C52.825,2.007,54.588,2,54.588,2ZM40.844,32.985a5.312,5.312,0,0,0-6.47,8.324L47.6,55.116,40.74,61.985l-7.055,6.808A5.312,5.312,0,0,0,41.637,75.8L55.12,62.633,61.988,69.5l7.459,7.219a5.312,5.312,0,0,0,7.012-7.952L62.636,55.116,76.929,41.8l.441-.5a5.312,5.312,0,0,0-7.952-7.012L55.12,47.6l-6.868-6.863-.5-.441Z" transform="translate(8.624 8.627)" fill="#0d2a53"/>
</svg>
