<svg id="Group_363" data-name="Group 363" xmlns="http://www.w3.org/2000/svg" width="108.334" height="110.543" viewBox="0 0 108.334 110.543">
  <path id="Path_212" data-name="Path 212" d="M-1089.33-687.239v21.405h29.746a25.485,25.485,0,0,1-11.1,16.632l17.938,13.919c10.452-9.647,16.481-23.817,16.481-40.65a63.436,63.436,0,0,0-1.005-11.306Z" transform="translate(1144.603 732.462)" fill="#4285f4"/>
  <path id="Path_213" data-name="Path 213" d="M-1155.995-651.791l-4.045,3.1-14.321,11.154h0a55.263,55.263,0,0,0,49.342,30.5c14.923,0,27.434-4.924,36.579-13.366l-17.938-13.919A32.922,32.922,0,0,1-1125.019-629c-14.371,0-26.581-9.7-30.953-22.762Z" transform="translate(1180.287 717.582)" fill="#34a853"/>
  <path id="Path_214" data-name="Path 214" d="M-1178.648-712.61a54.59,54.59,0,0,0-5.929,24.771,54.59,54.59,0,0,0,5.929,24.772c0,.05,18.391-14.27,18.391-14.27a33.113,33.113,0,0,1-1.758-10.5,33.112,33.112,0,0,1,1.758-10.5Z" transform="translate(1184.577 743.109)" fill="#fbbc05"/>
  <path id="Path_215" data-name="Path 215" d="M-1125.02-743.163a30.158,30.158,0,0,1,21.155,8.241l15.828-15.828a53.026,53.026,0,0,0-36.982-14.421,55.173,55.173,0,0,0-49.342,30.5l18.39,14.27C-1151.6-733.465-1139.39-743.163-1125.02-743.163Z" transform="translate(1180.291 765.171)" fill="#ea4335"/>
</svg>
