<svg id="ball-basketball_1_" data-name="ball-basketball (1)" xmlns="http://www.w3.org/2000/svg" width="64.615" height="64.615" viewBox="0 0 64.615 64.615">
  <path id="Path_58" data-name="Path 58" d="M0,0H64.615V64.615H0Z" transform="translate(0 0)" fill="none"/>
  <path id="Path_59" data-name="Path 59" d="M27.178,27.178,3,27.178A24.178,24.178,0,1,0,27.178,3,24.178,24.178,0,0,0,3,27.178" transform="translate(5.129 5.129)" fill="none" stroke="#ff9100" stroke-linecap="round" stroke-linejoin="round" stroke-width="2.5"/>
  <path id="Path_60" data-name="Path 60" d="M5.65,5.65,39.644,39.644" transform="translate(9.66 9.66)" fill="none" stroke="#ff9100" stroke-linecap="round" stroke-linejoin="round" stroke-width="2.5"/>
  <path id="Path_61" data-name="Path 61" d="M5.65,39.644,39.644,5.65" transform="translate(9.66 9.66)" fill="none" stroke="#ff9100" stroke-linecap="round" stroke-linejoin="round" stroke-width="2.5"/>
  <path id="Path_62" data-name="Path 62" d="M12,3A24.388,24.388,0,0,0,36.388,27.388" transform="translate(20.097 5.129)" fill="none" stroke="#ff9100" stroke-linecap="round" stroke-linejoin="round" stroke-width="2.5"/>
  <path id="Path_63" data-name="Path 63" d="M3,12A24.388,24.388,0,0,1,27.388,36.388" transform="translate(5.129 20.097)" fill="none" stroke="#ff9100" stroke-linecap="round" stroke-linejoin="round" stroke-width="2.5"/>
</svg>
