<svg id="eye-off_1_" data-name="eye-off (1)" xmlns="http://www.w3.org/2000/svg" width="71.625" height="71.625" viewBox="0 0 71.625 71.625">
  <path id="Path_759" data-name="Path 759" d="M0,0H71.625V71.626H0Z" fill="none"/>
  <path id="Path_760" data-name="Path 760" d="M11.747,10.587a5.969,5.969,0,0,0,8.443,8.44" transform="translate(19.843 21.009)" fill="none" stroke="#e6e6e6" stroke-linecap="round" stroke-linejoin="round" stroke-width="3"/>
  <path id="Path_761" data-name="Path 761" d="M43.829,37.853a26.015,26.015,0,0,1-13.97,3.96Q13.744,41.813,3,23.906q5.694-9.49,12.893-13.949m8.535-3.42A27.023,27.023,0,0,1,29.859,6Q45.975,6,56.719,23.906a49.454,49.454,0,0,1-6.381,8.565" transform="translate(5.953 11.906)" fill="none" stroke="#e6e6e6" stroke-linecap="round" stroke-linejoin="round" stroke-width="3"/>
  <path id="Path_762" data-name="Path 762" d="M3,3,56.719,56.719" transform="translate(5.953 5.953)" fill="none" stroke="#e6e6e6" stroke-linecap="round" stroke-linejoin="round" stroke-width="3"/>
</svg>
