<svg id="ball-football_1_" data-name="ball-football (1)" xmlns="http://www.w3.org/2000/svg" width="93.972" height="93.97" viewBox="0 0 93.972 93.97">
  <path id="Path_54" data-name="Path 54" d="M0,0H93.972V93.97H0Z" transform="translate(0 0)" fill="none"/>
  <path id="Path_55" data-name="Path 55" d="M38.068,38.067,3,38.067A35.068,35.068,0,1,0,38.068,3,35.068,35.068,0,0,0,3,38.067" transform="translate(8.918 8.918)" fill="none" stroke="#00c936" stroke-linecap="round" stroke-linejoin="round" stroke-width="3"/>
  <path id="Path_56" data-name="Path 56" d="M26.149,7,45.059,20.705,38.067,42.753H14.232L7.24,20.705Z" transform="translate(20.836 20.168)" fill="none" stroke="#00c936" stroke-linecap="round" stroke-linejoin="round" stroke-width="3"/>
  <path id="Path_57" data-name="Path 57" d="M36.582,18.89V3M48.258,54.643l9.3,11.43M55.108,32.6l14.556-5.76M25.139,54.842l-9.3,11.231M18.056,32.6,3.5,26.835" transform="translate(10.404 8.918)" fill="none" stroke="#00c936" stroke-linecap="round" stroke-linejoin="round" stroke-width="3"/>
</svg>
