<svg id="ball-basketball_1_" data-name="ball-basketball (1)" xmlns="http://www.w3.org/2000/svg" width="93.972" height="93.97" viewBox="0 0 93.972 93.97">
  <path id="Path_58" data-name="Path 58" d="M0,0H93.972V93.97H0Z" transform="translate(0 0)" fill="none"/>
  <path id="Path_59" data-name="Path 59" d="M38.163,38.162,3,38.162A35.163,35.163,0,1,0,38.163,3,35.162,35.162,0,0,0,3,38.162" transform="translate(8.823 8.823)" fill="none" stroke="#ff9100" stroke-linecap="round" stroke-linejoin="round" stroke-width="3"/>
  <path id="Path_60" data-name="Path 60" d="M5.65,5.65,55.089,55.087" transform="translate(16.616 16.616)" fill="none" stroke="#ff9100" stroke-linecap="round" stroke-linejoin="round" stroke-width="3"/>
  <path id="Path_61" data-name="Path 61" d="M5.65,55.087,55.089,5.65" transform="translate(16.616 16.616)" fill="none" stroke="#ff9100" stroke-linecap="round" stroke-linejoin="round" stroke-width="3"/>
  <path id="Path_62" data-name="Path 62" d="M12,3A35.468,35.468,0,0,0,47.468,38.468" transform="translate(34.68 8.823)" fill="none" stroke="#ff9100" stroke-linecap="round" stroke-linejoin="round" stroke-width="3"/>
  <path id="Path_63" data-name="Path 63" d="M3,12A35.468,35.468,0,0,1,38.468,47.468" transform="translate(8.823 34.678)" fill="none" stroke="#ff9100" stroke-linecap="round" stroke-linejoin="round" stroke-width="3"/>
</svg>
