<svg width="24" height="24" viewBox="0 0 24 24" fill="none" xmlns="http://www.w3.org/2000/svg">
<path d="M12.0228 9.88353C12.2155 9.88353 12.3716 9.72734 12.3716 9.53466C12.3716 9.34201 12.2155 9.18579 12.0228 9.18579C10.4815 9.18579 9.23193 10.4353 9.23193 11.9767C9.23193 13.5181 10.4815 14.7676 12.0228 14.7676C13.5642 14.7676 14.8137 13.5181 14.8137 11.9767C14.8137 11.784 14.6575 11.6279 14.4649 11.6279C14.2722 11.6279 14.116 11.784 14.116 11.9767C14.116 13.1328 13.1789 14.07 12.0228 14.07C10.8668 14.07 9.92957 13.1328 9.92957 11.9767C9.92957 10.8206 10.8668 9.88353 12.0228 9.88353Z" fill="white"/>
<path d="M18.6791 9.90457C18.6185 9.72151 18.4211 9.62228 18.2379 9.68284C18.059 9.74203 17.9594 9.93244 18.0128 10.1131C19.056 13.4354 17.2086 16.9744 13.8863 18.0177C10.5641 19.061 7.0251 17.2136 5.98182 13.8913C4.93841 10.569 6.78597 7.02996 10.1082 5.98666C11.3379 5.6005 12.6565 5.6005 13.8863 5.98666C14.0709 6.04232 14.2657 5.93783 14.3214 5.7532C14.3762 5.57132 14.2757 5.37911 14.095 5.32035C10.406 4.16293 6.47706 6.21523 5.31967 9.90435C4.16225 13.5934 6.21463 17.5223 9.90367 18.6797C13.5928 19.8371 17.5216 17.7848 18.679 14.0957C19.107 12.7314 19.107 11.2688 18.6791 9.90457H18.6791Z" fill="white"/>
<path d="M12.6871 7.48985C12.6889 7.29121 12.5363 7.12517 12.3382 7.11032C12.2341 7.10145 12.1298 7.09259 12.0228 7.09259C9.32536 7.09259 7.13867 9.27928 7.13867 11.9767C7.13867 14.6741 9.32536 16.8608 12.0228 16.8608C14.7202 16.8608 16.9069 14.6741 16.9069 11.9768C16.9069 11.8505 16.8992 11.7245 16.8837 11.5992C16.8558 11.4078 16.678 11.2752 16.4865 11.3031C16.295 11.3308 16.1624 11.5088 16.1902 11.7002C16.1913 11.7075 16.1926 11.7146 16.194 11.7219C16.2016 11.8064 16.2091 11.8902 16.2091 11.9765C16.2092 14.2887 14.335 16.1629 12.0229 16.1631C9.71078 16.1633 7.8365 14.2889 7.83641 11.9768C7.8363 9.66481 9.71045 7.79041 12.0226 7.79033H12.0227C12.1093 7.79033 12.1931 7.7978 12.2774 7.80527L12.3428 7.81074C12.5251 7.81853 12.6792 7.67706 12.6869 7.49477C12.687 7.49305 12.687 7.49146 12.6871 7.48985Z" fill="white"/>
<path d="M14.1159 8.13916V9.39019L11.7761 11.73C11.6375 11.8639 11.6337 12.0848 11.7676 12.2233C11.9015 12.3619 12.1223 12.3658 12.2609 12.2319C12.2638 12.2291 12.2667 12.2262 12.2695 12.2233L14.6093 9.88351H15.8603C15.9528 9.88351 16.0415 9.84675 16.107 9.78127L18.2001 7.68804C18.3363 7.55182 18.3363 7.33097 18.2001 7.19472C18.1677 7.16233 18.1293 7.13664 18.087 7.11912C18.0447 7.10159 17.9993 7.09257 17.9535 7.09258H16.9069V6.04597C16.9069 5.85331 16.7507 5.6971 16.5579 5.6972C16.4655 5.69723 16.3768 5.73397 16.3114 5.79934L14.2182 7.89257C14.1858 7.92493 14.1601 7.96337 14.1425 8.00568C14.125 8.048 14.1159 8.09335 14.1159 8.13916ZM14.8137 8.28364L16.2091 6.88816V7.44145C16.2091 7.6341 16.3654 7.79032 16.558 7.79032H17.1113L15.7158 9.18577H14.8137V8.28364Z" fill="white"/>
</svg>
