<svg xmlns="http://www.w3.org/2000/svg" width="98.893" height="98.893" viewBox="0 0 98.893 98.893">
  <g id="brightness-up" transform="translate(0 0)">
    <path id="Path_370" data-name="Path 370" d="M0,0H98.893V98.893H0Z" transform="translate(0 0)" fill="none"/>
    <path id="Path_371" data-name="Path 371" d="M21.578,21.578,9,21.578A12.578,12.578,0,1,0,21.578,9,12.578,12.578,0,0,0,9,21.578" transform="translate(27.868 27.868)" fill="none" stroke="#e6e6e6" stroke-linecap="round" stroke-linejoin="round" stroke-width="3"/>
    <path id="Path_372" data-name="Path 372" d="M12,11.385V3" transform="translate(37.446 9.578)" fill="none" stroke="#e6e6e6" stroke-linecap="round" stroke-linejoin="round" stroke-width="3"/>
    <path id="Path_373" data-name="Path 373" d="M17,11.47,22.87,5.6" transform="translate(52.973 17.45)" fill="none" stroke="#e6e6e6" stroke-linecap="round" stroke-linejoin="round" stroke-width="3"/>
    <path id="Path_374" data-name="Path 374" d="M19,12h8.385" transform="translate(58.929 37.446)" fill="none" stroke="#e6e6e6" stroke-linecap="round" stroke-linejoin="round" stroke-width="3"/>
    <path id="Path_375" data-name="Path 375" d="M17,17l5.87,5.87" transform="translate(52.973 52.973)" fill="none" stroke="#e6e6e6" stroke-linecap="round" stroke-linejoin="round" stroke-width="3"/>
    <path id="Path_376" data-name="Path 376" d="M12,19v8.385" transform="translate(37.446 58.929)" fill="none" stroke="#e6e6e6" stroke-linecap="round" stroke-linejoin="round" stroke-width="3"/>
    <path id="Path_377" data-name="Path 377" d="M11.47,17,5.6,22.87" transform="translate(17.45 52.973)" fill="none" stroke="#e6e6e6" stroke-linecap="round" stroke-linejoin="round" stroke-width="3"/>
    <path id="Path_378" data-name="Path 378" d="M12.385,12H4" transform="translate(12.456 37.446)" fill="none" stroke="#e6e6e6" stroke-linecap="round" stroke-linejoin="round" stroke-width="3"/>
    <path id="Path_379" data-name="Path 379" d="M11.47,11.47,5.6,5.6" transform="translate(17.45 17.45)" fill="none" stroke="#e6e6e6" stroke-linecap="round" stroke-linejoin="round" stroke-width="3"/>
  </g>
</svg>
