<svg id="camera-plus" xmlns="http://www.w3.org/2000/svg" width="88.16" height="88.16" viewBox="0 0 88.16 88.16">
  <path id="Path_786" data-name="Path 786" d="M0,0H88.16V88.16H0Z" fill="none"/>
  <path id="Path_787" data-name="Path 787" d="M36.06,62.773H10.347A7.347,7.347,0,0,1,3,55.426V22.367a7.347,7.347,0,0,1,7.347-7.347H14.02a7.347,7.347,0,0,0,7.347-7.347A3.673,3.673,0,0,1,25.04,4H47.08a3.673,3.673,0,0,1,3.673,3.673A7.347,7.347,0,0,0,58.1,15.02h3.673a7.347,7.347,0,0,1,7.347,7.347V35.223" transform="translate(8.02 10.693)" fill="none" stroke="#e6e6e6" stroke-linecap="round" stroke-linejoin="round" stroke-width="3"/>
  <path id="Path_788" data-name="Path 788" d="M16,19H38.04" transform="translate(42.773 50.793)" fill="none" stroke="#e6e6e6" stroke-linecap="round" stroke-linejoin="round" stroke-width="3"/>
  <path id="Path_789" data-name="Path 789" d="M19,16V38.04" transform="translate(50.793 42.773)" fill="none" stroke="#e6e6e6" stroke-linecap="round" stroke-linejoin="round" stroke-width="3"/>
  <path id="Path_790" data-name="Path 790" d="M9,21.02A11.02,11.02,0,1,0,20.02,10,11.02,11.02,0,0,0,9,21.02" transform="translate(24.06 26.733)" fill="none" stroke="#e6e6e6" stroke-linecap="round" stroke-linejoin="round" stroke-width="3"/>
</svg>
