<svg width="24" height="24" viewBox="0 0 24 24" fill="none" xmlns="http://www.w3.org/2000/svg">
<path d="M16 3.5C16 3.22386 15.7761 3 15.5 3H5C3.89543 3 3 3.89543 3 5V19C3 20.1046 3.89543 21 5 21H19C20.1046 21 21 20.1046 21 19V10.5C21 10.2239 20.7761 10 20.5 10V10C20.2239 10 20 10.2239 20 10.5V19C20 19.5523 19.5523 20 19 20H5C4.44772 20 4 19.5523 4 19V5C4 4.44772 4.44772 4 5 4H15.5C15.7761 4 16 3.77614 16 3.5V3.5Z" fill="white"/>
<path fill-rule="evenodd" clip-rule="evenodd" d="M21.355 4.64792C21.5495 4.84399 21.5482 5.16057 21.3521 5.35502L12.9333 13.7042L9.64792 10.4459C9.45185 10.2515 9.45053 9.9349 9.64498 9.73883C9.83943 9.54276 10.156 9.54144 10.3521 9.73589L12.9333 12.2958L20.6479 4.64498C20.844 4.45053 21.1606 4.45185 21.355 4.64792Z" fill="#41FF86"/>
</svg>
