<svg width="36" height="36" viewBox="0 0 36 36" fill="none" xmlns="http://www.w3.org/2000/svg">
<g clip-path="url(#clip0_62_15302)">
<path d="M16.3535 17.8399C16.3535 18.134 16.4407 18.4214 16.604 18.6659C16.7674 18.9103 16.9996 19.1009 17.2712 19.2134C17.5429 19.3259 17.8418 19.3554 18.1302 19.298C18.4186 19.2406 18.6835 19.0991 18.8914 18.8911C19.0993 18.6832 19.2409 18.4183 19.2982 18.13C19.3556 17.8416 19.3262 17.5427 19.2136 17.271C19.1011 16.9994 18.9106 16.7672 18.6661 16.6038C18.4216 16.4405 18.1342 16.3533 17.8402 16.3533C17.4459 16.3533 17.0677 16.5099 16.7889 16.7887C16.5101 17.0675 16.3535 17.4456 16.3535 17.8399Z" stroke="#0D2A53" stroke-width="2" stroke-linecap="round" stroke-linejoin="round"/>
<path d="M17.8402 10.4065C16.37 10.4065 14.9328 10.8424 13.7105 11.6592C12.4881 12.476 11.5353 13.6369 10.9727 14.9952C10.4101 16.3534 10.2629 17.848 10.5497 19.2899C10.8365 20.7318 11.5445 22.0563 12.584 23.0959C13.6236 24.1354 14.9481 24.8434 16.39 25.1302C17.8319 25.417 19.3265 25.2698 20.6847 24.7072C22.043 24.1446 23.2039 23.1919 24.0207 21.9695C24.8375 20.7471 25.2734 19.3099 25.2734 17.8398" stroke="#0D2A53" stroke-width="2" stroke-linecap="round" stroke-linejoin="round"/>
<path d="M19.3268 4.54164C16.5707 4.23251 13.7866 4.78749 11.3596 6.12982C8.93267 7.47215 6.98284 9.53549 5.77982 12.0344C4.5768 14.5334 4.18007 17.3444 4.64449 20.0787C5.10891 22.8129 6.41153 25.3353 8.37217 27.2969C10.3328 29.2585 12.8546 30.5623 15.5886 31.028C18.3227 31.4938 21.1339 31.0984 23.6334 29.8966C26.1329 28.6947 28.1972 26.7459 29.5407 24.3196C30.8842 21.8933 31.4405 19.1094 31.1327 16.3532" stroke="#0D2A53" stroke-width="2" stroke-linecap="round" stroke-linejoin="round"/>
<path d="M22.3001 8.91992V13.3799H26.7601L31.22 8.91992H26.7601V4.45996L22.3001 8.91992Z" stroke="#0D2A53" stroke-width="2" stroke-linecap="round" stroke-linejoin="round"/>
<path d="M22.3001 13.3799L17.8402 17.8398" stroke="#0D2A53" stroke-width="2" stroke-linecap="round" stroke-linejoin="round"/>
</g>
<defs>
<clipPath id="clip0_62_15302">
<rect width="35.6803" height="35.68" fill="white"/>
</clipPath>
</defs>
</svg>
