<svg width="100" height="100" viewBox="0 0 100 100" fill="none" xmlns="http://www.w3.org/2000/svg">
<path d="M21.2813 78.7187C21.8617 79.2998 22.551 79.7608 23.3098 80.0754C24.0685 80.3899 24.8818 80.5518 25.7032 80.5518C26.5245 80.5518 27.3378 80.3899 28.0965 80.0754C28.8553 79.7608 29.5446 79.2998 30.125 78.7187L50 58.8437L69.875 78.7187C71.0478 79.8915 72.6384 80.5503 74.2969 80.5503C75.9554 80.5503 77.546 79.8915 78.7188 78.7187C79.8915 77.546 80.5504 75.9554 80.5504 74.2969C80.5504 72.6383 79.8915 71.0478 78.7188 69.875L58.8438 50L78.7188 30.125C79.8915 28.9522 80.5504 27.3616 80.5504 25.7031C80.5504 24.0446 79.8915 22.454 78.7188 21.2812C77.546 20.1085 75.9554 19.4496 74.2969 19.4496C72.6384 19.4496 71.0478 20.1085 69.875 21.2812L50 41.1562L30.125 21.2812C29.5443 20.7006 28.855 20.2399 28.0963 19.9257C27.3376 19.6114 26.5244 19.4496 25.7032 19.4496C24.8819 19.4496 24.0688 19.6114 23.3101 19.9257C22.5514 20.2399 21.862 20.7006 21.2813 21.2812C20.1085 22.454 19.4497 24.0446 19.4497 25.7031C19.4497 26.5243 19.6114 27.3375 19.9257 28.0962C20.24 28.8549 20.7006 29.5443 21.2813 30.125L41.1563 50L21.2813 69.875C20.7002 70.4555 20.2392 71.1448 19.9247 71.9035C19.6101 72.6622 19.4482 73.4755 19.4482 74.2969C19.4482 75.1182 19.6101 75.9315 19.9247 76.6902C20.2392 77.449 20.7002 78.1383 21.2813 78.7187Z" fill="#0D2A53"/>
</svg>
