<svg xmlns="http://www.w3.org/2000/svg" xmlns:xlink="http://www.w3.org/1999/xlink" width="72.614" height="72.612" viewBox="0 0 72.614 72.612">
  <defs>
    <filter id="Path_315" x="0" y="0" width="72.614" height="72.612" filterUnits="userSpaceOnUse">
      <feOffset dy="3" input="SourceAlpha"/>
      <feGaussianBlur stdDeviation="3" result="blur"/>
      <feFlood flood-opacity="0.102"/>
      <feComposite operator="in" in2="blur"/>
      <feComposite in="SourceGraphic"/>
    </filter>
  </defs>
  <g id="Group_81" data-name="Group 81" transform="translate(9380.692 -5878.696)">
    <path id="Path_538" data-name="Path 538" d="M0,0H32V26H0Z" transform="translate(-9360.385 5899)" fill="#e6e6e6"/>
    <g id="square-rounded-x-filled" transform="translate(-9377.153 5879.231)">
      <path id="Path_314" data-name="Path 314" d="M0,0H65.537V65.537H0Z" fill="none"/>
      <g transform="matrix(1, 0, 0, 1, -3.54, -0.54)" filter="url(#Path_315)">
        <path id="Path_315-2" data-name="Path 315" d="M29.034,2h1.158l.868.011,1.682.046.816.035,1.581.093,1.51.126C49.716,3.58,55.033,8.9,56.3,21.963l.126,1.51.093,1.581c.014.268.027.541.035.816l.046,1.682.014,1.753L56.6,31.059l-.046,1.682-.035.816-.093,1.581-.126,1.51C55.033,49.716,49.716,55.032,36.65,56.3l-1.51.126-1.581.093c-.268.014-.541.027-.816.036L31.06,56.6l-1.753.014L27.554,56.6l-1.682-.046-.816-.036-1.581-.093-1.51-.126C8.9,55.032,3.581,49.716,2.314,36.649l-.126-1.51L2.1,33.558q-.02-.408-.036-.816l-.046-1.682Q2,30.2,2,29.306l0-.885.011-.868.046-1.682.035-.816.093-1.581.126-1.51C3.581,8.9,8.9,3.58,21.964,2.313l1.51-.126,1.581-.093c.268-.014.541-.027.816-.035l1.682-.046C28.127,2,29.034,2,29.034,2ZM21.969,17.929a2.731,2.731,0,0,0-3.326,4.279l6.8,7.1-3.528,3.531-3.627,3.5a2.731,2.731,0,0,0,4.088,3.6l6.931-6.771L32.838,36.7l3.835,3.711a2.731,2.731,0,0,0,3.6-4.088l-7.106-7.015,7.348-6.845.227-.257a2.731,2.731,0,0,0-4.088-3.6l-7.35,6.843-3.531-3.528-.257-.227Z" transform="translate(7 4)" fill="#0d2a53"/>
      </g>
    </g>
  </g>
</svg>
