<svg id="lifebuoy" xmlns="http://www.w3.org/2000/svg" width="113.908" height="113.908" viewBox="0 0 113.908 113.908">
  <path id="Path_181" data-name="Path 181" d="M0,0H113.908V113.908H0Z" fill="none"/>
  <path id="Path_182" data-name="Path 182" d="M26.985,26.985,8,26.985A18.985,18.985,0,1,0,26.985,8,18.985,18.985,0,0,0,8,26.985" transform="translate(29.969 29.969)" fill="none" stroke="#e6e6e6" stroke-linecap="round" stroke-linejoin="round" stroke-width="3"/>
  <path id="Path_183" data-name="Path 183" d="M45.716,45.716,3,45.716A42.716,42.716,0,1,0,45.716,3,42.716,42.716,0,0,0,3,45.716" transform="translate(11.239 11.239)" fill="none" stroke="#e6e6e6" stroke-linecap="round" stroke-linejoin="round" stroke-width="3"/>
  <path id="Path_184" data-name="Path 184" d="M15,15,30.9,30.9" transform="translate(56.193 56.193)" fill="none" stroke="#e6e6e6" stroke-linecap="round" stroke-linejoin="round" stroke-width="3"/>
  <path id="Path_185" data-name="Path 185" d="M21.55,15,5.65,30.9" transform="translate(21.166 56.193)" fill="none" stroke="#e6e6e6" stroke-linecap="round" stroke-linejoin="round" stroke-width="3"/>
  <path id="Path_186" data-name="Path 186" d="M5.65,5.65l15.9,15.9" transform="translate(21.166 21.166)" fill="none" stroke="#e6e6e6" stroke-linecap="round" stroke-linejoin="round" stroke-width="3"/>
  <path id="Path_187" data-name="Path 187" d="M30.9,5.65,15,21.55" transform="translate(56.193 21.166)" fill="none" stroke="#e6e6e6" stroke-linecap="round" stroke-linejoin="round" stroke-width="3"/>
</svg>
