<svg xmlns="http://www.w3.org/2000/svg" width="50.843" height="57.048" viewBox="0 0 50.843 57.048">
  <path id="Path_453" data-name="Path 453" d="M48.985,29.77a4.811,4.811,0,0,0-2.034-.941c.049-.089.095-.179.138-.271l.464-.466a4.962,4.962,0,0,0,.436-6.567,4.86,4.86,0,0,0-2.854-1.761c.08-.148.151-.3.215-.452a4.939,4.939,0,0,0-.151-5.856,4.86,4.86,0,0,0-2.855-1.763,4.924,4.924,0,0,0-.429-5.4,4.887,4.887,0,0,0-7.075-.64,4.874,4.874,0,0,0-4.805-4.024h0a4.849,4.849,0,0,0-3.458,1.434L14.852,14.829l-.045-1.57a4.865,4.865,0,0,0-9.727-.145L2.739,30.19.816,32.434a3.429,3.429,0,0,0,.176,4.634l2.859,2.864a3.43,3.43,0,0,0,.425,4.3L17.7,57.681a3.368,3.368,0,0,0,2.4,1,3.406,3.406,0,0,0,2.068-.7l2.8-2.16a26.522,26.522,0,0,0,8.84-4.318,68.7,68.7,0,0,0,8.929-7.7l6.674-6.7a4.926,4.926,0,0,0-.428-7.323ZM36.252,7.5a2.579,2.579,0,0,1,3.85.229,2.647,2.647,0,0,1-.258,3.486l-1.19,1.194a4.854,4.854,0,0,0-.529.4,4.873,4.873,0,0,0-3.37-3.809ZM28.211,4.7a2.579,2.579,0,0,1,3.85.229A2.647,2.647,0,0,1,31.8,8.419L18.136,21.992l-.045-1.57a4.881,4.881,0,0,0-1.8-3.753ZM2.625,35.424a1.089,1.089,0,0,1-.056-1.477l2.367-2.761a.01.01,0,0,0,0-.005L7.389,13.3a2.553,2.553,0,1,1,5.106,0l.066,2.327a4.883,4.883,0,0,0-4.2,4.652L6.024,37.353l-.681.794Zm45.153.029L41.1,42.15C35.4,47.869,29.447,52.46,24.213,53.6a1.1,1.1,0,0,0-.438.2l-3.017,2.325a1.079,1.079,0,0,1-1.424-.093L5.909,42.587a1.089,1.089,0,0,1-.056-1.477L8.22,38.349a.011.011,0,0,0,0-.005L10.673,20.46a2.553,2.553,0,1,1,5.106,0l.121,4.22a1.186,1.186,0,0,0,1.193,1.158,1.161,1.161,0,0,0,.83-.351L31.5,11.868a2.579,2.579,0,0,1,3.85.229,2.647,2.647,0,0,1-.258,3.486l-9.35,9.382a1.25,1.25,0,0,0,0,1.764h0a1.255,1.255,0,0,0,1.779,0l12.02-12.062a2.579,2.579,0,0,1,3.85.229,2.647,2.647,0,0,1-.258,3.486L31.164,30.387a1.267,1.267,0,0,0,0,1.788,1.238,1.238,0,0,0,1.756,0l9.406-9.439a2.579,2.579,0,0,1,3.85.229,2.647,2.647,0,0,1-.258,3.486L36.6,35.8a1.3,1.3,0,0,0,0,1.829l.015.015a1.188,1.188,0,0,0,1.684,0l5.776-5.8a2.709,2.709,0,0,1,1.912-.8,2.5,2.5,0,0,1,1.562.539A2.6,2.6,0,0,1,47.778,35.453Z" transform="translate(0 -1.629)" fill="#0d2a53"/>
</svg>
