<svg width="43" height="54" viewBox="0 0 43 54" fill="none" xmlns="http://www.w3.org/2000/svg">
<path fill-rule="evenodd" clip-rule="evenodd" d="M9 13C9 5.8203 14.8203 0 22 0C29.1797 0 35 5.8203 35 13V23C39.4183 23 43 26.5817 43 31V46C43 50.4183 39.4183 54 35 54H8C3.58172 54 0 50.4183 0 46V31C0 26.5817 3.58172 23 8 23H9V13ZM22 2C15.9249 2 11 6.92487 11 13V23H33V13C33 6.92487 28.0751 2 22 2ZM41 31C41 27.6863 38.3137 25 35 25H8C4.68629 25 2 27.6863 2 31V46C2 49.3137 4.68629 52 8 52H35C38.3137 52 41 49.3137 41 46V31ZM22 41C23.1046 41 24 40.1046 24 39C24 37.8954 23.1046 37 22 37C20.8954 37 20 37.8954 20 39C20 40.1046 20.8954 41 22 41ZM22 43C24.2091 43 26 41.2091 26 39C26 36.7909 24.2091 35 22 35C19.7909 35 18 36.7909 18 39C18 41.2091 19.7909 43 22 43Z" fill="white"/>
</svg>
