<svg width="41" height="41" viewBox="0 0 41 41" fill="none" xmlns="http://www.w3.org/2000/svg">
<g clip-path="url(#clip0_362_817)">
<path d="M23.511 13.5026V10.127C23.511 9.23159 23.1554 8.3729 22.5222 7.73978C21.8891 7.10666 21.0304 6.75098 20.1351 6.75098H8.31983C7.42447 6.75098 6.56577 7.10666 5.93265 7.73978C5.29953 8.3729 4.94385 9.23159 4.94385 10.127V30.3818C4.94385 31.2771 5.29953 32.1358 5.93265 32.769C6.56577 33.4021 7.42447 33.7578 8.31983 33.7578H20.1351C21.0304 33.7578 21.8891 33.4021 22.5222 32.769C23.1554 32.1358 23.511 31.2771 23.511 30.3818V27.0062" stroke="#E6E6E6" stroke-width="2" stroke-linecap="round" stroke-linejoin="round"/>
<path d="M18.1826 20.254H31.7982L26.7342 15.1904" stroke="#E6E6E6" stroke-width="2" stroke-linecap="round" stroke-linejoin="round"/>
<path d="M26.7349 25.3185L31.7985 20.2549" stroke="#E6E6E6" stroke-width="2" stroke-linecap="round" stroke-linejoin="round"/>
</g>
<defs>
<clipPath id="clip0_362_817">
<rect width="40.51" height="40.51" fill="white"/>
</clipPath>
</defs>
</svg>
