<svg xmlns="http://www.w3.org/2000/svg" width="111.043" height="111.043" viewBox="0 0 111.043 111.043">
  <g id="Group_738" data-name="Group 738" transform="translate(-1803 -7735.979)">
    <path id="Path_794" data-name="Path 794" d="M53.895,22.507V13.254A9.254,9.254,0,0,0,44.641,4H12.254A9.254,9.254,0,0,0,3,13.254V68.775a9.254,9.254,0,0,0,9.254,9.254H44.641a9.254,9.254,0,0,0,9.254-9.254V59.522" transform="translate(1813.552 7750.485)" fill="none" stroke="#e6e6e6" stroke-linecap="round" stroke-linejoin="round" stroke-width="3"/>
    <g id="Group_737" data-name="Group 737" transform="translate(189 -427)">
      <path id="Path_793" data-name="Path 793" d="M0,0H111.043V111.043H0Z" transform="translate(1614 8162.979)" fill="none"/>
      <path id="Path_795" data-name="Path 795" d="M27.2,22.88H64.522L50.641,9" transform="translate(1636.641 8195.619)" fill="none" stroke="#e6e6e6" stroke-linecap="round" stroke-linejoin="round" stroke-width="3"/>
      <path id="Path_796" data-name="Path 796" d="M18,25.88,31.88,12" transform="translate(1669.283 8206.5)" fill="none" stroke="#e6e6e6" stroke-linecap="round" stroke-linejoin="round" stroke-width="3"/>
    </g>
  </g>
</svg>
