<svg width="24" height="24" viewBox="0 0 24 24" fill="none" xmlns="http://www.w3.org/2000/svg">
<g clip-path="url(#clip0_245_2820)">
<path d="M22.5 10.5C22.3674 10.5 22.2402 10.4473 22.1464 10.3536C22.0527 10.2598 22 10.1326 22 10C22 7.062 20.856 4.299 18.778 2.222C18.6869 2.1277 18.6365 2.0014 18.6377 1.8703C18.6388 1.7392 18.6914 1.61379 18.7841 1.52109C18.8768 1.42839 19.0022 1.3758 19.1333 1.37466C19.2644 1.37352 19.3907 1.42392 19.485 1.515C20.603 2.6265 21.4894 3.9488 22.0927 5.40528C22.6961 6.86176 23.0045 8.42349 23 10C23 10.1326 22.9473 10.2598 22.8536 10.3536C22.7598 10.4473 22.6326 10.5 22.5 10.5ZM1.5 10.5C1.36739 10.5 1.24021 10.4473 1.14645 10.3536C1.05268 10.2598 1 10.1326 1 10C1 6.794 2.248 3.781 4.515 1.515C4.6093 1.42392 4.7356 1.37352 4.8667 1.37466C4.9978 1.3758 5.12321 1.42839 5.21591 1.52109C5.30861 1.61379 5.3612 1.7392 5.36234 1.8703C5.36348 2.0014 5.31308 2.1277 5.222 2.222C4.19721 3.24093 3.38475 4.45306 2.83169 5.78817C2.27862 7.12329 1.99593 8.55487 2 10C2 10.1326 1.94732 10.2598 1.85355 10.3536C1.75979 10.4473 1.63261 10.5 1.5 10.5ZM13.5 4.18C13.3674 4.18 13.2402 4.12732 13.1464 4.03355C13.0527 3.93979 13 3.81261 13 3.68V2C13 1.449 12.551 1 12 1C11.449 1 11 1.449 11 2V3.68C11 3.81261 10.9473 3.93979 10.8536 4.03355C10.7598 4.12732 10.6326 4.18 10.5 4.18C10.3674 4.18 10.2402 4.12732 10.1464 4.03355C10.0527 3.93979 10 3.81261 10 3.68V2C10 0.897 10.897 0 12 0C13.103 0 14 0.897 14 2V3.68C14 3.81261 13.9473 3.93979 13.8536 4.03355C13.7598 4.12732 13.6326 4.18 13.5 4.18ZM12 24C10.07 24 8.5 22.43 8.5 20.5C8.5 20.3674 8.55268 20.2402 8.64645 20.1464C8.74021 20.0527 8.86739 20 9 20C9.13261 20 9.25979 20.0527 9.35355 20.1464C9.44732 20.2402 9.5 20.3674 9.5 20.5C9.5 21.878 10.622 23 12 23C13.378 23 14.5 21.878 14.5 20.5C14.5 20.3674 14.5527 20.2402 14.6464 20.1464C14.7402 20.0527 14.8674 20 15 20C15.1326 20 15.2598 20.0527 15.3536 20.1464C15.4473 20.2402 15.5 20.3674 15.5 20.5C15.5 22.43 13.93 24 12 24Z" fill="#0D2A53"/>
<path d="M20.4967 21H3.49673C3.1906 20.9989 2.8921 20.9043 2.64123 20.7289C2.39035 20.5535 2.19908 20.3055 2.09302 20.0184C1.98696 19.7312 1.97119 19.4185 2.0478 19.1221C2.12442 18.8257 2.28978 18.5598 2.52173 18.36C3.2974 17.7071 3.92086 16.8924 4.34841 15.973C4.77595 15.0536 4.99723 14.0519 4.99673 13.038V10C4.99673 6.14 8.13673 3 11.9967 3C15.8567 3 18.9967 6.14 18.9967 10V13.038C18.9967 15.091 19.8957 17.028 21.4637 18.353C21.6984 18.5515 21.8664 18.8172 21.9452 19.1143C22.024 19.4113 22.0097 19.7254 21.9042 20.0141C21.7988 20.3027 21.6072 20.5521 21.3555 20.7284C21.1038 20.9047 20.804 20.9995 20.4967 21ZM11.9967 4C8.68773 4 5.99673 6.691 5.99673 10V13.038C5.99783 14.1956 5.74592 15.3395 5.25864 16.3895C4.77135 17.4396 4.06046 18.3705 3.17573 19.117C3.09716 19.1829 3.04077 19.2714 3.0142 19.3705C2.98764 19.4696 2.99219 19.5744 3.02723 19.6708C3.06228 19.7672 3.12612 19.8505 3.21011 19.9094C3.29409 19.9683 3.39415 19.9999 3.49673 20H20.4967C20.5989 20 20.6987 19.9687 20.7826 19.9103C20.8664 19.8518 20.9304 19.7691 20.9658 19.6732C21.0012 19.5773 21.0064 19.4729 20.9806 19.374C20.9549 19.2751 20.8994 19.1864 20.8217 19.12C19.9362 18.3733 19.2245 17.442 18.7366 16.3914C18.2486 15.3409 17.9961 14.1964 17.9967 13.038V10C17.9967 6.691 15.3057 4 11.9967 4Z" fill="#0D2A53"/>
</g>
<defs>
<clipPath id="clip0_245_2820">
<rect width="24" height="24" fill="white"/>
</clipPath>
</defs>
</svg>
