<svg id="ball-basketball_1_" data-name="ball-basketball (1)" xmlns="http://www.w3.org/2000/svg" width="35.016" height="35.015" viewBox="0 0 35.016 35.015">
  <path id="Path_58" data-name="Path 58" d="M0,0H35.016V35.015H0Z" fill="none"/>
  <path id="Path_59" data-name="Path 59" d="M3,16.1H3A13.1,13.1,0,1,0,16.1,3,13.1,13.1,0,0,0,3,16.1" transform="translate(1.405 1.405)" fill="none" stroke="#ff9100" stroke-linecap="round" stroke-linejoin="round" stroke-width="1.5"/>
  <path id="Path_60" data-name="Path 60" d="M5.65,5.65,24.072,24.072" transform="translate(2.647 2.647)" fill="none" stroke="#ff9100" stroke-linecap="round" stroke-linejoin="round" stroke-width="1.5"/>
  <path id="Path_61" data-name="Path 61" d="M5.65,24.072,24.072,5.65" transform="translate(2.647 2.647)" fill="none" stroke="#ff9100" stroke-linecap="round" stroke-linejoin="round" stroke-width="1.5"/>
  <path id="Path_62" data-name="Path 62" d="M12,3A13.216,13.216,0,0,0,25.216,16.216" transform="translate(5.394 1.405)" fill="none" stroke="#ff9100" stroke-linecap="round" stroke-linejoin="round" stroke-width="1.5"/>
  <path id="Path_63" data-name="Path 63" d="M3,12A13.216,13.216,0,0,1,16.216,25.216" transform="translate(1.405 5.394)" fill="none" stroke="#ff9100" stroke-linecap="round" stroke-linejoin="round" stroke-width="1.5"/>
</svg>
