<svg width="24" height="24" viewBox="0 0 24 24" fill="none" xmlns="http://www.w3.org/2000/svg">
<path fill-rule="evenodd" clip-rule="evenodd" d="M15.8967 13.3401C16.0552 13.4243 16.1157 13.6213 16.0318 13.7802L14.8225 16.0697H18L16.009 18.8636C15.9047 19.01 15.7019 19.0438 15.5559 18.9393C15.4099 18.8348 15.3761 18.6315 15.4804 18.4852L16.7376 16.7209H13.7435L15.4576 13.4756C15.5416 13.3166 15.7381 13.256 15.8967 13.3401Z" fill="white"/>
<path fill-rule="evenodd" clip-rule="evenodd" d="M11.0348 11.8372C12.739 11.8372 14.1206 10.4524 14.1206 8.74418C14.1206 7.03595 12.739 5.65116 11.0348 5.65116C9.33051 5.65116 7.94894 7.03595 7.94894 8.74418C7.94894 10.4524 9.33051 11.8372 11.0348 11.8372ZM11.0348 12.4884C13.0978 12.4884 14.7702 10.812 14.7702 8.74418C14.7702 6.67633 13.0978 5 11.0348 5C8.97172 5 7.29929 6.67633 7.29929 8.74418C7.29929 10.812 8.97172 12.4884 11.0348 12.4884Z" fill="white"/>
<path d="M13.4709 13.5046C13.2945 13.4786 13.1137 13.4651 12.9296 13.4651H9.46478C7.55123 13.4651 6 14.9228 6 16.7209V19H6.69296V16.7209C6.69296 15.2824 7.93394 14.1163 9.46478 14.1163H12.9296C13.1148 14.1163 13.2958 14.1333 13.4709 14.1659V13.5046Z" fill="white"/>
</svg>
