<svg width="24" height="24" viewBox="0 0 24 24" fill="none" xmlns="http://www.w3.org/2000/svg">
<path fill-rule="evenodd" clip-rule="evenodd" d="M20.3671 16.6605C20.5546 16.8632 20.5422 17.1795 20.3395 17.3671L16.77 20.6688L14.6753 18.8802C14.4653 18.7009 14.4404 18.3853 14.6198 18.1753C14.7991 17.9653 15.1147 17.9404 15.3247 18.1198L16.7435 19.3312L19.6605 16.633C19.8632 16.4454 20.1795 16.4578 20.3671 16.6605Z" fill="#0076E9"/>
<path fill-rule="evenodd" clip-rule="evenodd" d="M7.611 5.36931C8.94714 4.47652 10.518 4 12.125 4C14.2792 4.00227 16.3445 4.85903 17.8677 6.38227C19.391 7.90551 20.2477 9.97081 20.25 12.125C20.25 12.4183 20.2341 12.7103 20.2028 13H18.9442C19.0617 12.0824 18.9936 11.1469 18.7398 10.25H15.7352C15.9216 11.493 15.9216 12.757 15.7352 14H17V15.25H10.0648C10.4655 16.6184 11.1249 17.8578 12 18.8526V20.249C11.5119 20.2415 11.0232 20.19 10.5399 20.0939C8.9638 19.7804 7.51606 19.0065 6.37976 17.8702C5.24346 16.7339 4.46963 15.2862 4.15612 13.7101C3.84262 12.134 4.00352 10.5003 4.61848 9.0157C5.23344 7.53105 6.27485 6.2621 7.611 5.36931ZM5.51016 10.25C5.33702 10.8599 5.24946 11.491 5.25 12.125C5.24946 12.759 5.33702 13.3901 5.51016 14H8.51485C8.32839 12.757 8.32839 11.493 8.51485 10.25H5.51016ZM12.125 5.25859C11.1875 6.27578 10.4844 7.56719 10.0648 9H14.1852C13.7656 7.56719 13.0625 6.27578 12.125 5.25859ZM15.4797 9H18.2477C17.8079 8.14288 17.1936 7.38729 16.4443 6.78182C15.695 6.17635 14.8272 5.73439 13.8969 5.48438C14.6251 6.55519 15.1607 7.74493 15.4797 9ZM9.78125 10.25C9.57396 11.4914 9.57396 12.7586 9.78125 14H14.4688C14.676 12.7586 14.676 11.4914 14.4688 10.25H9.78125ZM8.77032 9C9.08927 7.74493 9.62492 6.55519 10.3531 5.48438C9.42278 5.73439 8.55505 6.17635 7.80574 6.78182C7.05643 7.38729 6.44213 8.14288 6.00235 9H8.77032ZM8.77032 15.25H6.00235C6.44213 16.1071 7.05643 16.8627 7.80574 17.4682C8.55505 18.0737 9.42278 18.5156 10.3531 18.7656C9.62492 17.6948 9.08927 16.5051 8.77032 15.25Z" fill="#0076E9"/>
</svg>
