<svg width="24" height="24" viewBox="0 0 24 24" fill="none" xmlns="http://www.w3.org/2000/svg">
<path d="M16.705 20.4008C16.6318 20.4008 16.5585 20.3642 16.4853 20.3276L11.6163 16.7766L6.74733 20.3276C6.60089 20.4375 6.45445 20.4375 6.30802 20.3276C6.19819 20.2544 6.12497 20.0714 6.16158 19.9249L8.02864 14.1773L3.15964 10.6628C3.0132 10.553 2.9766 10.4066 3.0132 10.2601C3.04981 10.1137 3.19625 10.0039 3.37929 10.0039H9.41979L11.2502 4.25626C11.2868 4.10983 11.4333 4 11.6163 4C11.7994 4 11.9092 4.10983 11.9824 4.25626L13.8129 9.96727H19.8534C19.9998 9.96727 20.1462 10.0771 20.2195 10.2235C20.2561 10.37 20.2195 10.553 20.073 10.6262L15.204 14.1773L17.0711 19.9249C17.1077 20.0714 17.0711 20.2544 16.9246 20.3276C16.8514 20.3642 16.7782 20.4008 16.705 20.4008ZM11.6163 15.9712C11.6895 15.9712 11.7628 16.0078 11.836 16.0444L16.0094 19.0829L14.3986 14.1773C14.362 14.0309 14.3986 13.8478 14.5451 13.7746L18.7185 10.7361H13.5566C13.4102 10.7361 13.2637 10.6262 13.1905 10.4798L11.6163 5.53758L10.0055 10.4432C9.96892 10.5896 9.82248 10.6995 9.63944 10.6995H4.51417L8.6876 13.738C8.83404 13.8478 8.87065 13.9943 8.83404 14.1407L7.22324 19.0829L11.3967 16.0444C11.4699 16.0078 11.5431 15.9712 11.6163 15.9712Z" fill="#D2DB08"/>
</svg>
