<svg width="24" height="24" viewBox="0 0 24 24" fill="none" xmlns="http://www.w3.org/2000/svg">
<path d="M12.0252 9.88329C12.2179 9.88329 12.374 9.7271 12.374 9.53442C12.374 9.34177 12.2179 9.18555 12.0252 9.18555C10.4839 9.18555 9.23438 10.4351 9.23438 11.9765C9.23438 13.5179 10.4839 14.7674 12.0252 14.7674C13.5666 14.7674 14.8161 13.5179 14.8161 11.9765C14.8161 11.7838 14.6599 11.6277 14.4673 11.6277C14.2746 11.6277 14.1184 11.7838 14.1184 11.9765C14.1184 13.1326 13.1813 14.0698 12.0252 14.0698C10.8692 14.0698 9.93202 13.1326 9.93202 11.9765C9.93202 10.8204 10.8692 9.88329 12.0252 9.88329Z" fill="#D2DB08"/>
<path d="M18.6823 9.90469C18.6217 9.72163 18.4243 9.6224 18.2411 9.68296C18.0622 9.74215 17.9626 9.93256 18.016 10.1132C19.0592 13.4355 17.2118 16.9745 13.8895 18.0178C10.5673 19.0611 7.02834 17.2137 5.98506 13.8914C4.94165 10.5691 6.78921 7.03008 10.1114 5.98678C11.3411 5.60062 12.6597 5.60062 13.8895 5.98678C14.0741 6.04244 14.2689 5.93795 14.3246 5.75332C14.3794 5.57144 14.2789 5.37923 14.0982 5.32047C10.4092 4.16305 6.4803 6.21535 5.32291 9.90447C4.16549 13.5935 6.21787 17.5224 9.90691 18.6798C13.596 19.8372 17.5248 17.7849 18.6822 14.0958C19.1102 12.7315 19.1102 11.2689 18.6823 9.90469Z" fill="#D2DB08"/>
<path d="M12.6891 7.49003C12.6909 7.29139 12.5383 7.12535 12.3402 7.1105C12.2361 7.10163 12.1318 7.09277 12.0248 7.09277C9.32732 7.09277 7.14062 9.27946 7.14062 11.9769C7.14062 14.6743 9.32732 16.861 12.0248 16.861C14.7222 16.861 16.9089 14.6743 16.9089 11.977C16.9089 11.8507 16.9012 11.7247 16.8857 11.5994C16.8578 11.408 16.68 11.2754 16.4885 11.3033C16.297 11.331 16.1644 11.509 16.1922 11.7004C16.1933 11.7077 16.1946 11.7148 16.196 11.7221C16.2036 11.8066 16.2111 11.8904 16.2111 11.9767C16.2112 14.2889 14.337 16.1631 12.0249 16.1633C9.71273 16.1635 7.83846 14.2891 7.83837 11.977C7.83826 9.66499 9.71241 7.79059 12.0246 7.79051C12.1112 7.79051 12.1951 7.79798 12.2794 7.80545L12.3448 7.81092C12.5271 7.81871 12.6812 7.67724 12.6889 7.49495C12.689 7.49323 12.689 7.49164 12.6891 7.49003Z" fill="#D2DB08"/>
<path d="M14.1182 8.13923V9.39026L11.7784 11.7301C11.6398 11.864 11.636 12.0849 11.7699 12.2234C11.9038 12.362 12.1246 12.3659 12.2632 12.232C12.2661 12.2292 12.269 12.2263 12.2718 12.2234L14.6116 9.88358H15.8626C15.9551 9.88358 16.0438 9.84682 16.1093 9.78134L18.2024 7.68811C18.3386 7.55189 18.3386 7.33104 18.2024 7.19479C18.17 7.1624 18.1316 7.13671 18.0893 7.11919C18.047 7.10166 18.0016 7.09264 17.9558 7.09265H16.9092V6.04604C16.9092 5.85338 16.753 5.69717 16.5602 5.69727C16.4678 5.6973 16.3791 5.73404 16.3137 5.79941L14.2205 7.89264C14.1881 7.925 14.1624 7.96344 14.1448 8.00575C14.1273 8.04807 14.1182 8.09342 14.1182 8.13923ZM14.816 8.28371L16.2114 6.88823V7.44152C16.2114 7.63417 16.3677 7.79039 16.5603 7.79039H17.1136L15.7181 9.18584H14.816V8.28371Z" fill="#D2DB08"/>
</svg>
