<svg width="24" height="24" viewBox="0 0 24 24" fill="none" xmlns="http://www.w3.org/2000/svg">
<path fill-rule="evenodd" clip-rule="evenodd" d="M15.8954 13.3401C16.0539 13.4243 16.1144 13.6213 16.0305 13.7802L14.8212 16.0697H17.9987L16.0077 18.8636C15.9034 19.01 15.7006 19.0438 15.5546 18.9393C15.4086 18.8348 15.3748 18.6315 15.4791 18.4852L16.7363 16.7209H13.7422L15.4563 13.4756C15.5403 13.3166 15.7368 13.256 15.8954 13.3401Z" fill="#D2DB08"/>
<path fill-rule="evenodd" clip-rule="evenodd" d="M11.0324 11.8372C12.7366 11.8372 14.1182 10.4524 14.1182 8.74418C14.1182 7.03595 12.7366 5.65116 11.0324 5.65116C9.32809 5.65116 7.94652 7.03595 7.94652 8.74418C7.94652 10.4524 9.32809 11.8372 11.0324 11.8372ZM11.0324 12.4884C13.0954 12.4884 14.7678 10.812 14.7678 8.74418C14.7678 6.67633 13.0954 5 11.0324 5C8.9693 5 7.29688 6.67633 7.29688 8.74418C7.29688 10.812 8.9693 12.4884 11.0324 12.4884Z" fill="#D2DB08"/>
<path d="M13.4709 13.5048C13.2945 13.4788 13.1137 13.4653 12.9296 13.4653H9.46478C7.55123 13.4653 6 14.923 6 16.7211V19.0002H6.69296V16.7211C6.69296 15.2826 7.93394 14.1165 9.46478 14.1165H12.9296C13.1148 14.1165 13.2958 14.1335 13.4709 14.1661V13.5048Z" fill="#D2DB08"/>
</svg>
