<svg width="37" height="36" viewBox="0 0 37 36" fill="none" xmlns="http://www.w3.org/2000/svg">
<g clip-path="url(#clip0_62_15331)">
<path d="M12.3932 17.8401C12.3932 19.0162 12.742 20.166 13.3954 21.1439C14.0488 22.1219 14.9776 22.8841 16.0642 23.3342C17.1509 23.7843 18.3466 23.902 19.5001 23.6726C20.6537 23.4431 21.7133 22.8768 22.545 22.0451C23.3766 21.2134 23.943 20.1538 24.1725 19.0002C24.4019 17.8467 24.2842 16.651 23.8341 15.5644C23.384 14.4777 22.6218 13.549 21.6438 12.8955C20.6659 12.2421 19.5161 11.8933 18.34 11.8933C16.7628 11.8933 15.2502 12.5198 14.135 13.6351C13.0197 14.7503 12.3932 16.2629 12.3932 17.8401Z" stroke="#D2DB08" stroke-width="2" stroke-linecap="round" stroke-linejoin="round"/>
<path d="M4.96021 17.8404C4.96021 20.4867 5.74494 23.0736 7.21517 25.274C8.6854 27.4743 10.7751 29.1893 13.22 30.202C15.6649 31.2147 18.3552 31.4797 20.9507 30.9634C23.5462 30.4471 25.9303 29.1728 27.8016 27.3016C29.6728 25.4303 30.9471 23.0462 31.4634 20.4507C31.9797 17.8552 31.7147 15.1649 30.702 12.72C29.6893 10.2751 27.9743 8.1854 25.774 6.71517C23.5736 5.24494 20.9867 4.46021 18.3404 4.46021C14.7917 4.46021 11.3884 5.8699 8.87916 8.37916C6.3699 10.8884 4.96021 14.2917 4.96021 17.8404Z" stroke="#D2DB08" stroke-width="2" stroke-linecap="round" stroke-linejoin="round"/>
<path d="M22.8002 22.3L27.7806 27.2805" stroke="#D2DB08" stroke-width="2" stroke-linecap="round" stroke-linejoin="round"/>
<path d="M13.8801 22.3L8.89966 27.2805" stroke="#D2DB08" stroke-width="2" stroke-linecap="round" stroke-linejoin="round"/>
<path d="M8.89966 8.39966L13.8801 13.3801" stroke="#D2DB08" stroke-width="2" stroke-linecap="round" stroke-linejoin="round"/>
<path d="M27.7806 8.39966L22.8002 13.3801" stroke="#D2DB08" stroke-width="2" stroke-linecap="round" stroke-linejoin="round"/>
</g>
<defs>
<clipPath id="clip0_62_15331">
<rect width="35.68" height="35.68" fill="white" transform="translate(0.5)"/>
</clipPath>
</defs>
</svg>
