<svg width="36" height="36" viewBox="0 0 36 36" fill="none" xmlns="http://www.w3.org/2000/svg">
<g clip-path="url(#clip0_62_15315)">
<path d="M11.8932 17.8401C11.8932 19.0162 12.242 20.166 12.8954 21.1439C13.5489 22.1219 14.4776 22.8841 15.5643 23.3342C16.6509 23.7843 17.8466 23.902 19.0002 23.6726C20.1537 23.4431 21.2133 22.8768 22.045 22.0451C22.8767 21.2134 23.4431 20.1538 23.6725 19.0002C23.902 17.8467 23.7842 16.651 23.3341 15.5644C22.884 14.4777 22.1218 13.549 21.1439 12.8955C20.1659 12.2421 19.0162 11.8933 17.84 11.8933C16.2628 11.8933 14.7502 12.5198 13.635 13.6351C12.5198 14.7503 11.8932 16.2629 11.8932 17.8401Z" stroke="#0D2A53" stroke-width="2" stroke-linecap="round" stroke-linejoin="round"/>
<path d="M4.45984 17.8401C4.45984 20.4865 5.24458 23.0734 6.71481 25.2737C8.18504 27.4741 10.2747 29.1891 12.7196 30.2018C15.1645 31.2145 17.8548 31.4795 20.4503 30.9632C23.0458 30.4469 25.43 29.1726 27.3012 27.3013C29.1724 25.4301 30.4468 23.046 30.9631 20.4505C31.4793 17.855 31.2144 15.1647 30.2017 12.7198C29.1889 10.2748 27.474 8.18515 25.2736 6.71492C23.0733 5.24469 20.4863 4.45996 17.84 4.45996C14.2914 4.45996 10.8881 5.86965 8.3788 8.37892C5.86953 10.8882 4.45984 14.2915 4.45984 17.8401Z" stroke="#0D2A53" stroke-width="2" stroke-linecap="round" stroke-linejoin="round"/>
<path d="M22.3002 22.3L27.2806 27.2805" stroke="#0D2A53" stroke-width="2" stroke-linecap="round" stroke-linejoin="round"/>
<path d="M13.3802 22.3L8.39972 27.2805" stroke="#0D2A53" stroke-width="2" stroke-linecap="round" stroke-linejoin="round"/>
<path d="M8.39972 8.39966L13.3802 13.3801" stroke="#0D2A53" stroke-width="2" stroke-linecap="round" stroke-linejoin="round"/>
<path d="M27.2806 8.39966L22.3002 13.3801" stroke="#0D2A53" stroke-width="2" stroke-linecap="round" stroke-linejoin="round"/>
</g>
<defs>
<clipPath id="clip0_62_15315">
<rect width="35.68" height="35.68" fill="white"/>
</clipPath>
</defs>
</svg>
