<svg id="lifebuoy" xmlns="http://www.w3.org/2000/svg" width="69.025" height="69.025" viewBox="0 0 69.025 69.025">
  <path id="Path_181" data-name="Path 181" d="M0,0H69.025V69.025H0Z" fill="none"/>
  <path id="Path_182" data-name="Path 182" d="M8,19.5H8A11.5,11.5,0,1,0,19.5,8,11.5,11.5,0,0,0,8,19.5" transform="translate(15.008 15.008)" fill="none" stroke="#e6e6e6" stroke-linecap="round" stroke-linejoin="round" stroke-width="4"/>
  <path id="Path_183" data-name="Path 183" d="M3,28.884H3A25.884,25.884,0,1,0,28.884,3,25.884,25.884,0,0,0,3,28.884" transform="translate(5.628 5.628)" fill="none" stroke="#e6e6e6" stroke-linecap="round" stroke-linejoin="round" stroke-width="4"/>
  <path id="Path_184" data-name="Path 184" d="M15,15l9.635,9.635" transform="translate(28.141 28.141)" fill="none" stroke="#e6e6e6" stroke-linecap="round" stroke-linejoin="round" stroke-width="4"/>
  <path id="Path_185" data-name="Path 185" d="M15.285,15,5.65,24.635" transform="translate(10.6 28.141)" fill="none" stroke="#e6e6e6" stroke-linecap="round" stroke-linejoin="round" stroke-width="4"/>
  <path id="Path_186" data-name="Path 186" d="M5.65,5.65l9.635,9.635" transform="translate(10.6 10.6)" fill="none" stroke="#e6e6e6" stroke-linecap="round" stroke-linejoin="round" stroke-width="4"/>
  <path id="Path_187" data-name="Path 187" d="M24.635,5.65,15,15.285" transform="translate(28.141 10.6)" fill="none" stroke="#e6e6e6" stroke-linecap="round" stroke-linejoin="round" stroke-width="4"/>
</svg>
