<svg id="target-arrow" xmlns="http://www.w3.org/2000/svg" width="113.522" height="113.521" viewBox="0 0 113.522 113.521">
  <path id="Path_48" data-name="Path 48" d="M0,0H113.522V113.521H0Z" fill="none"/>
  <path id="Path_49" data-name="Path 49" d="M15.73,15.73m-4.73,0A4.73,4.73,0,1,0,15.73,11,4.73,4.73,0,0,0,11,15.73" transform="translate(41.031 41.03)" fill="none" stroke="#d2db08" stroke-linecap="round" stroke-linejoin="round" stroke-width="3"/>
  <path id="Path_50" data-name="Path 50" d="M30.65,7A23.65,23.65,0,1,0,54.3,30.65" transform="translate(26.111 26.11)" fill="none" stroke="#d2db08" stroke-linecap="round" stroke-linejoin="round" stroke-width="3"/>
  <path id="Path_51" data-name="Path 51" d="M50.314,3.265a42.57,42.57,0,1,0,37.562,37.58" transform="translate(11.177 11.185)" fill="none" stroke="#d2db08" stroke-linecap="round" stroke-linejoin="round" stroke-width="3"/>
  <path id="Path_52" data-name="Path 52" d="M15,17.19V31.38H29.19L43.38,17.19H29.19V3Z" transform="translate(55.951 11.19)" fill="none" stroke="#d2db08" stroke-linecap="round" stroke-linejoin="round" stroke-width="3"/>
  <path id="Path_53" data-name="Path 53" d="M26.19,9,12,23.19" transform="translate(44.761 33.57)" fill="none" stroke="#d2db08" stroke-linecap="round" stroke-linejoin="round" stroke-width="3"/>
</svg>
