<svg id="wallet" xmlns="http://www.w3.org/2000/svg" width="112.157" height="112.156" viewBox="0 0 112.157 112.156">
  <path id="Path_178" data-name="Path 178" d="M0,0H112.157V112.156H0Z" fill="none"/>
  <path id="Path_179" data-name="Path 179" d="M64.752,22.693V8.673A4.673,4.673,0,0,0,60.079,4H13.346a9.346,9.346,0,1,0,0,18.693H69.425A4.673,4.673,0,0,1,74.1,27.366v14.02m0,18.693V74.1a4.673,4.673,0,0,1-4.673,4.673H13.346A9.346,9.346,0,0,1,4,69.424V13.346" transform="translate(14.693 14.693)" fill="none" stroke="#e6e6e6" stroke-linecap="round" stroke-linejoin="round" stroke-width="3"/>
  <path id="Path_180" data-name="Path 180" d="M42.039,12V30.693H23.346a9.346,9.346,0,1,1,0-18.693H42.039" transform="translate(51.425 44.078)" fill="none" stroke="#e6e6e6" stroke-linecap="round" stroke-linejoin="round" stroke-width="3"/>
</svg>
