<svg id="wallet" xmlns="http://www.w3.org/2000/svg" width="78.462" height="78.462" viewBox="0 0 78.462 78.462">
  <path id="Path_178" data-name="Path 178" d="M0,0H78.462V78.462H0Z" fill="none"/>
  <path id="Path_179" data-name="Path 179" d="M46.138,17.133V7.283A3.262,3.262,0,0,0,42.9,4H10.483a6.567,6.567,0,0,0,0,13.133h38.9a3.262,3.262,0,0,1,3.241,3.283v9.85m0,13.133v9.85a3.262,3.262,0,0,1-3.241,3.283h-38.9A6.525,6.525,0,0,1,4,49.964v-39.4" transform="translate(9.263 8.966)" fill="none" stroke="#e6e6e6" stroke-linecap="round" stroke-linejoin="round" stroke-width="4"/>
  <path id="Path_180" data-name="Path 180" d="M33.448,12V24.966H20.483a6.483,6.483,0,0,1,0-12.966H33.448" transform="translate(31.899 27.298)" fill="none" stroke="#5bdeaa" stroke-linecap="round" stroke-linejoin="round" stroke-width="4"/>
</svg>
