<svg xmlns="http://www.w3.org/2000/svg" width="306.271" height="299.268" viewBox="0 0 306.271 299.268">
  <g id="Card_10" data-name="Card 10" transform="translate(-1042 -564)">
    <path id="Rectangle_893" data-name="Rectangle 893" d="M0,0H306.271V299.268H0Z" transform="matrix(1, 0, 0, 1, 1042, 564)" fill="rgba(255,255,255,0.6)"/>
    <g id="Group_1002" data-name="Group 1002">
      <text id="_2k" data-name="2k" transform="matrix(1, 0, 0, 1, 1062.539, 855.268)" fill="#313131" font-size="10" font-family="SegoeUI, Segoe UI"><tspan x="0" y="0">2k</tspan></text>
      <text id="_4k" data-name="4k" transform="matrix(1, 0, 0, 1, 1061.648, 798.121)" fill="#313131" font-size="10" font-family="SegoeUI, Segoe UI"><tspan x="0" y="0">4k</tspan></text>
      <text id="_6k" data-name="6k" transform="matrix(1, 0, 0, 1, 1061.645, 741.866)" fill="#313131" font-size="10" font-family="SegoeUI, Segoe UI"><tspan x="0" y="0">6k</tspan></text>
      <text id="_8k" data-name="8k" transform="matrix(1, 0, 0, 1, 1061.645, 685.613)" fill="#313131" font-size="10" font-family="SegoeUI, Segoe UI"><tspan x="0" y="0">8k</tspan></text>
    </g>
    <text id="_16.2k_New_Followers" data-name="16.2k New Followers" transform="matrix(1, 0, 0, 1, 1062, 652.331)" fill="#313131" font-size="17" font-family="Poppins-SemiBold, Poppins" font-weight="600"><tspan x="0" y="0">Toplam Abone Sayısı 5.468</tspan></text>
    <g id="Group_1020" data-name="Group 1020" transform="translate(-2.355 -2)">
      <g id="Group_996" data-name="Group 996">
        <text id="Follower_Growth" data-name="Follower Growth" transform="matrix(1, 0, 0, 1, 1064, 607.931)" fill="#313131" font-size="18" font-family="Poppins-Regular, Poppins"><tspan x="0" y="0">Abonelik İstatistikleri</tspan></text>
      </g>
      <g id="Group_999" data-name="Group 999" transform="translate(15 -5.428)">
        <g id="Group_998" data-name="Group 998">
          <path id="Vector" d="M12.144,0h-10A2.143,2.143,0,0,0,0,2.143v10a2.143,2.143,0,0,0,2.143,2.143h10a2.143,2.143,0,0,0,2.143-2.143v-10A2.143,2.143,0,0,0,12.144,0Zm0,1.429a.714.714,0,0,1,.714.714V6.429h-5v-5ZM1.429,2.143a.714.714,0,0,1,.714-.714H6.429v5h-5Zm.714,10.715a.714.714,0,0,1-.714-.714V7.858h5v5Zm10.715-.714a.714.714,0,0,1-.714.714H7.858v-5h5Z" transform="matrix(1, 0, 0, 1, 1261.659, 599.717)" fill="#313131"/>
          <g id="Ellipse_146" data-name="Ellipse 146" transform="matrix(1, 0, 0, 1, 1251.835, 589.894)" fill="none" stroke="#eef0f2" stroke-width="0.893">
            <circle cx="16.965" cy="16.965" r="16.965" stroke="none"/>
            <circle cx="16.965" cy="16.965" r="16.519" fill="none"/>
          </g>
        </g>
        <g id="Group_997" data-name="Group 997">
          <path id="Union" d="M6.937.714a.687.687,0,1,0-1.374,0V7.99l-1.3-1.352a.668.668,0,0,0-.971,0,.735.735,0,0,0,0,1.01L5.765,10.22a.682.682,0,0,0,.25.166.665.665,0,0,0,.535-.028.679.679,0,0,0,.12-.077.7.7,0,0,0,.073-.067L9.209,7.648a.735.735,0,0,0,0-1.01.668.668,0,0,0-.971,0L6.937,7.99Z" transform="matrix(1, 0, 0, 1, 1301.839, 599.716)" fill="#313131"/>
          <path id="Union-2" data-name="Union" d="M.687,9.644a.7.7,0,0,1,.687.714v1.929a.583.583,0,0,0,.161.4.539.539,0,0,0,.389.167h8.654a.539.539,0,0,0,.389-.167.583.583,0,0,0,.161-.4V10.358a.687.687,0,1,1,1.374,0v1.929a2.041,2.041,0,0,1-.563,1.414,1.886,1.886,0,0,1-1.36.586H1.923A1.886,1.886,0,0,1,.563,13.7,2.041,2.041,0,0,1,0,12.287V10.358A.7.7,0,0,1,.687,9.644Z" transform="matrix(1, 0, 0, 1, 1301.839, 599.716)" fill="#313131"/>
          <g id="Ellipse_147" data-name="Ellipse 147" transform="matrix(1, 0, 0, 1, 1291.124, 589.894)" fill="none" stroke="#eef0f2" stroke-width="0.893">
            <circle cx="16.965" cy="16.965" r="16.965" stroke="none"/>
            <circle cx="16.965" cy="16.965" r="16.519" fill="none"/>
          </g>
        </g>
      </g>
    </g>
    <g id="Group_1000" data-name="Group 1000">
      <path id="Rectangle_894" data-name="Rectangle 894" d="M0,0H6.25V77.684H0Z" transform="matrix(1, 0, 0, 1, 1098.255, 777.407)" fill="#0ac05e"/>
      <path id="Rectangle_895" data-name="Rectangle 895" d="M0,0H6.25V149.117H0Z" transform="matrix(1, 0, 0, 1, 1305.411, 705.973)" fill="#0ac05e"/>
      <path id="Rectangle_896" data-name="Rectangle 896" d="M0,0H6.25V71.433H0Z" transform="matrix(1, 0, 0, 1, 1279.516, 783.658)" fill="#0ac05e"/>
      <path id="Rectangle_897" data-name="Rectangle 897" d="M0,0H6.25V127.687H0Z" transform="matrix(1, 0, 0, 1, 1253.622, 727.403)" fill="#0ac05e"/>
      <path id="Rectangle_898" data-name="Rectangle 898" d="M0,0H6.25V112.508H0Z" transform="matrix(1, 0, 0, 1, 1227.727, 742.584)" fill="#0ac05e"/>
      <path id="Rectangle_899" data-name="Rectangle 899" d="M0,0H6.25V77.684H0Z" transform="matrix(1, 0, 0, 1, 1201.833, 777.407)" fill="#0ac05e"/>
      <path id="Rectangle_900" data-name="Rectangle 900" d="M0,0H6.25V69.648H0Z" transform="matrix(1, 0, 0, 1, 1175.939, 785.444)" fill="#0ac05e"/>
      <path id="Rectangle_901" data-name="Rectangle 901" d="M0,0H6.25V150.9H0Z" transform="matrix(1, 0, 0, 1, 1150.043, 704.188)" fill="#0ac05e"/>
      <path id="Rectangle_902" data-name="Rectangle 902" d="M0,0H6.25V46.432H0Z" transform="matrix(1, 0, 0, 1, 1124.153, 808.658)" fill="#0ac05e"/>
    </g>
  </g>
</svg>
