<svg id="bell-ringing" xmlns="http://www.w3.org/2000/svg" width="93.36" height="93.36" viewBox="0 0 93.36 93.36">
  <path id="Path_102" data-name="Path 102" d="M0,0H93.36V93.36H0Z" fill="none"/>
  <path id="Path_103" data-name="Path 103" d="M27.235,10.85a7.746,7.746,0,1,1,15.49,0A27.485,27.485,0,0,1,58.215,34.4V46.174A15.709,15.709,0,0,0,65.96,57.949H4a15.709,15.709,0,0,0,7.745-11.775V34.4a27.485,27.485,0,0,1,15.49-23.55" transform="translate(11.7 8.775)" fill="none" stroke="#e6e6e6" stroke-linecap="round" stroke-linejoin="round" stroke-width="3"/>
  <path id="Path_104" data-name="Path 104" d="M9,17v3.925a11.775,11.775,0,1,0,23.55,0V17" transform="translate(25.901 49.725)" fill="none" stroke="#e6e6e6" stroke-linecap="round" stroke-linejoin="round" stroke-width="3"/>
  <path id="Path_105" data-name="Path 105" d="M29.172,17.628A43.371,43.371,0,0,0,18.206,3" transform="translate(52.413 8.775)" fill="none" stroke="#e6e6e6" stroke-linecap="round" stroke-linejoin="round" stroke-width="3"/>
  <path id="Path_106" data-name="Path 106" d="M3,17.628A43.371,43.371,0,0,1,13.958,3" transform="translate(8.775 8.775)" fill="none" stroke="#e6e6e6" stroke-linecap="round" stroke-linejoin="round" stroke-width="3"/>
</svg>
