<svg xmlns="http://www.w3.org/2000/svg" width="75.155" height="75.155" viewBox="0 0 75.155 75.155">
  <g id="Group_59" data-name="Group 59" transform="translate(-271.422 -169.464)">
    <path id="Path_48" data-name="Path 48" d="M0,0H75.155V75.155H0Z" transform="translate(271.422 169.464)" fill="none"/>
    <path id="Path_49" data-name="Path 49" d="M13.953,13.953m-2.953,0A2.953,2.953,0,1,0,13.953,11,2.953,2.953,0,0,0,11,13.953" transform="translate(295.225 192.91)" fill="none" stroke="#e6e6e6" stroke-linecap="round" stroke-linejoin="round" stroke-width="4"/>
    <path id="Path_50" data-name="Path 50" d="M22.657,7A15.657,15.657,0,1,0,38.314,22.657" transform="translate(286.342 184.384)" fill="none" stroke="#e6e6e6" stroke-linecap="round" stroke-linejoin="round" stroke-width="4"/>
    <path id="Path_51" data-name="Path 51" d="M34.322,3.175A28.183,28.183,0,1,0,59.189,28.055" transform="translate(277.809 175.855)" fill="none" stroke="#e6e6e6" stroke-linecap="round" stroke-linejoin="round" stroke-width="4"/>
    <path id="Path_52" data-name="Path 52" d="M15,12.394v9.394h9.394l9.394-9.394H24.394V3Z" transform="translate(303.394 175.858)" fill="none" stroke="#0cc6ff" stroke-linecap="round" stroke-linejoin="round" stroke-width="2"/>
    <path id="Path_53" data-name="Path 53" d="M21.394,9,12,18.394" transform="translate(297 188.647)" fill="none" stroke="#0cc6ff" stroke-linecap="round" stroke-linejoin="round" stroke-width="2"/>
  </g>
</svg>
