<svg id="wallet" xmlns="http://www.w3.org/2000/svg" width="46.918" height="46.918" viewBox="0 0 46.918 46.918">
  <path id="Path_178" data-name="Path 178" d="M0,0H46.918V46.918H0Z" fill="none"/>
  <path id="Path_179" data-name="Path 179" d="M29.414,11.82V5.955A1.955,1.955,0,0,0,27.459,4H7.91a3.91,3.91,0,0,0,0,7.82H31.369a1.955,1.955,0,0,1,1.955,1.955v5.865m0,7.82v5.865a1.955,1.955,0,0,1-1.955,1.955H7.91A3.91,3.91,0,0,1,4,31.369V7.91" transform="translate(3.82 3.82)" fill="none" stroke="#d2db08" stroke-linecap="round" stroke-linejoin="round" stroke-width="2"/>
  <path id="Path_180" data-name="Path 180" d="M25.729,12v7.82H17.91a3.91,3.91,0,1,1,0-7.82h7.82" transform="translate(13.369 11.459)" fill="none" stroke="#d2db08" stroke-linecap="round" stroke-linejoin="round" stroke-width="2"/>
</svg>
