<svg id="user-off" xmlns="http://www.w3.org/2000/svg" width="70.54" height="70.54" viewBox="0 0 70.54 70.54">
  <path id="Path_494" data-name="Path 494" d="M0,0H70.54V70.54H0Z" fill="none"/>
  <path id="Path_495" data-name="Path 495" d="M8.18,18.247a11.786,11.786,0,0,0,7.689,7.721m10.308-1.6A11.757,11.757,0,1,0,9.747,8.048" transform="translate(15.862 5.822)" fill="none" stroke="#e6e6e6" stroke-linecap="round" stroke-linejoin="round" stroke-width="4"/>
  <path id="Path_496" data-name="Path 496" d="M6,32.635V26.757A11.757,11.757,0,0,1,17.757,15H29.513a11.7,11.7,0,0,1,3.477.523m7.739,7.695a11.739,11.739,0,0,1,.541,3.539v5.878" transform="translate(11.635 29.087)" fill="none" stroke="#e6e6e6" stroke-linecap="round" stroke-linejoin="round" stroke-width="4"/>
  <path id="Path_497" data-name="Path 497" d="M3,3,55.9,55.9" transform="translate(5.817 5.817)" fill="none" stroke="#ff5757" stroke-linecap="round" stroke-linejoin="round" stroke-width="4"/>
</svg>
