<svg id="users" xmlns="http://www.w3.org/2000/svg" width="73.25" height="73.25" viewBox="0 0 73.25 73.25">
  <path id="Path_398" data-name="Path 398" d="M0,0H73.25V73.25H0Z" fill="none"/>
  <path id="Path_399" data-name="Path 399" d="M17.095,15.095,5,15.095A12.095,12.095,0,1,0,17.095,3,12.095,12.095,0,0,0,5,15.095" transform="translate(10.119 8.071)" fill="none" stroke="#e6e6e6" stroke-linecap="round" stroke-linejoin="round" stroke-width="4"/>
  <path id="Path_400" data-name="Path 400" d="M3,33.142V27.095A12.1,12.1,0,0,1,15.095,15H27.19A12.1,12.1,0,0,1,39.284,27.095v6.047" transform="translate(6.071 31.037)" fill="none" stroke="#e6e6e6" stroke-linecap="round" stroke-linejoin="round" stroke-width="4"/>
  <path id="Path_401" data-name="Path 401" d="M16,3.13a12.095,12.095,0,0,1,0,23.434" transform="translate(30.013 8.319)" fill="none" stroke="#e6e6e6" stroke-linecap="round" stroke-linejoin="round" stroke-width="4"/>
  <path id="Path_402" data-name="Path 402" d="M27.071,32.839V26.791A12.1,12.1,0,0,0,18,15.15" transform="translate(37.108 31.34)" fill="none" stroke="#e6e6e6" stroke-linecap="round" stroke-linejoin="round" stroke-width="4"/>
</svg>
